<?xml version="1.0" standalone="no"?><!DOCTYPE svg PUBLIC "-//W3C//DTD SVG 1.1//EN" "http://www.w3.org/Graphics/SVG/1.1/DTD/svg11.dtd"><svg t="1666677936649" class="icon" viewBox="0 0 1024 1024" version="1.1" xmlns="http://www.w3.org/2000/svg" p-id="7000" width="128" height="128" xmlns:xlink="http://www.w3.org/1999/xlink"><path d="M461.9 635.9c-74.1 0-143.7-28.8-196.1-81.2-52.4-52.4-81.2-122-81.2-196.1s28.8-143.7 81.2-196.1c52.4-52.4 122-81.2 196.1-81.2s143.7 28.8 196.1 81.2c52.4 52.4 81.2 122 81.2 196.1S710.3 502.3 658 554.7c-52.4 52.4-122.1 81.2-196.1 81.2z m0-512c-62.7 0-121.6 24.4-165.9 68.7s-68.7 103.3-68.7 165.9 24.4 121.6 68.7 165.9c44.3 44.3 103.3 68.7 165.9 68.7 62.7 0 121.6-24.4 165.9-68.7 44.3-44.3 68.7-103.3 68.7-165.9S672.1 237 627.8 192.7c-44.3-44.4-103.3-68.8-165.9-68.8zM461.9 934.6c-11.8 0-21.3-9.6-21.3-21.3V699.9c0-11.8 9.6-21.3 21.3-21.3s21.3 9.6 21.3 21.3v213.3c0 11.8-9.6 21.4-21.3 21.4z m94.2-44.5c-1.4 0-2.8-0.1-4.2-0.4-11.6-2.3-19-13.5-16.7-25.1L569 695.8c2.3-11.6 13.6-19 25.1-16.7 11.6 2.3 19 13.5 16.7 25.1L577 872.9c-2 10.2-10.9 17.2-20.9 17.2z" fill="#2c2c2c" p-id="7001"></path><path d="M461.9 934.6c-11.8 0-21.3-9.6-21.3-21.3V699.9c0-11.8 9.6-21.3 21.3-21.3s21.3 9.6 21.3 21.3v213.3c0 11.8-9.6 21.4-21.3 21.4z m-93.8-42.1c-10 0-18.9-7-20.9-17.2L312.9 704c-2.3-11.6 5.2-22.8 16.7-25.1 11.6-2.3 22.8 5.2 25.1 16.7L389 867c2.3 11.6-5.2 22.8-16.7 25.1-1.4 0.3-2.8 0.4-4.2 0.4zM219.8 886.9c-9.8 0-18.6-6.8-20.8-16.8l-22.4-101.9c-9.1-40.2-1.9-80.4 20.2-113.4 21.4-31.9 54.5-53.1 93-59.6 11.6-2 22.6 5.9 24.6 17.5s-5.9 22.6-17.5 24.6c-26.9 4.5-49.8 19.2-64.7 41.3-15.5 23.1-20.5 51.6-14 80.3v0.1l22.4 102c2.5 11.5-4.8 22.9-16.3 25.4-1.5 0.4-3 0.5-4.5 0.5z m485.7-7.1c-1.5 0-3.1-0.2-4.6-0.5-11.5-2.5-18.8-13.9-16.3-25.4l20.8-94.8c1.3-5.9 2.2-11.9 2.6-17.8 1.6-25.6-6-50.2-21.4-69.3-15.2-18.9-37.1-31.3-61.6-34.9-11.7-1.7-19.7-12.6-18-24.2 1.7-11.7 12.6-19.7 24.2-18 35.1 5.2 66.6 23.1 88.5 50.3 22.2 27.4 33.1 62.5 30.8 98.8-0.5 8.1-1.7 16.3-3.5 24.4l-20.8 94.8c-2.1 9.8-10.9 16.6-20.7 16.6z" fill="#2c2c2c" p-id="7002"></path><path d="M397.9 977.3c-47.9 0-85.3-28.1-85.3-64s37.5-64 85.3-64c11.8 0 21.3 9.6 21.3 21.3s-9.6 21.3-21.3 21.3c-26 0-42.7 12.6-42.7 21.3s16.6 21.3 42.7 21.3 42.7-12.6 42.7-21.3c0-11.8 9.6-21.3 21.3-21.3s21.3 9.6 21.3 21.3c0 36-37.5 64.1-85.3 64.1zM247.3 970.3c-47.9 0-85.3-28.1-85.3-64 0-14.7 6.6-29 18.5-40.2 10.2-9.6 23.9-16.7 39.7-20.5 11.4-2.8 23 4.2 25.8 15.6 2.8 11.4-4.2 23-15.6 25.8-16.1 3.9-25.7 12.9-25.7 19.3 0 8.7 16.6 21.3 42.7 21.3 10.5 0 20.8-2.2 28.9-6.3 10.5-5.3 23.4-1 28.6 9.5 5.3 10.5 1 23.4-9.5 28.6-14.2 7.1-30.8 10.9-48.1 10.9zM676.5 970.6c-10.5 0-20.8-1.4-30.5-4.1-2.9-0.8-5.7-1.7-8.4-2.8-3.7-1.4-7.3-3-10.6-4.8-10.4-5.5-14.4-18.4-9-28.8 5.5-10.4 18.4-14.4 28.8-9 1.8 0.9 3.7 1.8 5.8 2.6 1.6 0.6 3.2 1.1 4.9 1.6 6 1.7 12.4 2.5 19 2.5 26 0 42.7-12.6 42.7-21.3 0-6.2-8.8-15-25-19.2-11.4-2.9-18.3-14.5-15.4-26 2.9-11.4 14.5-18.3 26-15.4 34.7 8.9 57.1 32.6 57.1 60.5 0 36.1-37.5 64.2-85.4 64.2z" fill="#2c2c2c" p-id="7003"></path><path d="M525.9 977.3c-47.9 0-85.3-28.1-85.3-64 0-11.8 9.6-21.3 21.3-21.3s21.3 9.6 21.3 21.3c0 8.7 16.6 21.3 42.7 21.3 26 0 42.7-12.6 42.7-21.3S552 892 525.9 892c-11.8 0-21.3-9.6-21.3-21.3s9.6-21.3 21.3-21.3c47.9 0 85.3 28.1 85.3 64s-37.5 63.9-85.3 63.9zM461.9 468.9c-11.4 0-22.1-4.4-30.2-12.5l-12.5-12.5c-4.7-4.7-7.3-11-7.3-17.7 0-6.7 2.6-13 7.3-17.7 4.7-4.7 11-7.3 17.7-7.3h50c6.7 0 13 2.6 17.7 7.3 4.7 4.7 7.3 11 7.3 17.7s-2.6 13-7.3 17.7L492 456.4c-8 8.1-18.7 12.5-30.1 12.5z" fill="#2c2c2c" p-id="7004"></path><path d="M419.4 531.8c-35.3 0-64-28.7-64-64 0-11.8 9.6-21.3 21.3-21.3S398 456 398 467.8s9.6 21.3 21.3 21.3 21.3-9.6 21.3-21.3c0-11.8 9.6-21.3 21.3-21.3s21.3 9.6 21.3 21.3c0.2 35.3-28.5 64-63.8 64z" fill="#2c2c2c" p-id="7005"></path><path d="M504.7 531.8c-35.3 0-64-28.7-64-64 0-11.8 9.6-21.3 21.3-21.3s21.3 9.6 21.3 21.3c0 11.8 9.6 21.3 21.3 21.3 11.8 0 21.3-9.6 21.3-21.3 0-11.8 9.6-21.3 21.3-21.3s21.3 9.6 21.3 21.3c0.2 35.3-28.5 64-63.8 64z" fill="#2c2c2c" p-id="7006"></path><path d="M355.2 337.3m-21.3 0a21.3 21.3 0 1 0 42.6 0 21.3 21.3 0 1 0-42.6 0Z" fill="#2c2c2c" p-id="7007"></path><path d="M355.2 365c-15.3 0-27.7-12.4-27.7-27.7 0-15.3 12.4-27.7 27.7-27.7 15.3 0 27.7 12.4 27.7 27.7 0 15.3-12.4 27.7-27.7 27.7z m0-42.7c-8.2 0-14.9 6.7-14.9 14.9s6.7 14.9 14.9 14.9 14.9-6.7 14.9-14.9-6.7-14.9-14.9-14.9z" fill="#2c2c2c" p-id="7008"></path><path d="M568.5 337.3m-21.3 0a21.3 21.3 0 1 0 42.6 0 21.3 21.3 0 1 0-42.6 0Z" fill="#2c2c2c" p-id="7009"></path><path d="M568.5 365c-15.3 0-27.7-12.4-27.7-27.7 0-15.3 12.4-27.7 27.7-27.7s27.7 12.4 27.7 27.7c0.1 15.3-12.4 27.7-27.7 27.7z m0-42.7c-8.2 0-14.9 6.7-14.9 14.9s6.7 14.9 14.9 14.9 14.9-6.7 14.9-14.9c0.1-8.2-6.6-14.9-14.9-14.9zM216.2 280.1c-3.6 0-7.3-0.9-10.7-2.9-16-9.3-32.9-46.5-40.6-76.8-8.6-34-13.7-85.1 11.2-135.6l0.9-1.8 1.2-1.6c4.7-6.3 14-13.6 31.8-13.5 36.4 0.3 107.2 35 134.9 73.4 6.9 9.6 4.7 22.9-4.8 29.8-9.6 6.9-22.9 4.7-29.8-4.8-9.4-13-30.1-28.5-54.1-40.5-21.7-10.9-37.5-14.6-44.9-15.1-14.7 34.8-11.6 70.2-6.1 94.3 6.7 29.5 19.1 51.5 23.6 56.5 8.8 6.3 11.5 18.5 5.9 28-4.1 6.8-11.2 10.6-18.5 10.6z m12.8-38.2z m-2.1-1.5zM269.4 444.9H99.7c-12 0-21.8-9.8-21.8-21.8s9.8-21.8 21.8-21.8h169.7c12 0 21.8 9.8 21.8 21.8s-9.8 21.8-21.8 21.8zM106.4 520.5c-10.4 0-19.6-7.5-21.5-18.1-1-5.7 0.3-11.5 3.6-16.3 3.3-4.8 8.4-8 14.1-9l167.1-29.5c5.8-1 11.5 0.3 16.3 3.6 4.8 3.3 8 8.4 9 14.1 1 5.7-0.3 11.5-3.6 16.3-3.3 4.8-8.4 8-14.1 9l-167.1 29.5c-1.3 0.3-2.6 0.4-3.8 0.4zM273.4 398.8c-1.3 0-2.6-0.1-3.8-0.3L102.4 369c-5.7-1-10.7-4.2-14.1-9-3.3-4.8-4.6-10.6-3.6-16.3 2.1-11.9 13.4-19.8 25.3-17.7l167.1 29.5c5.7 1 10.8 4.2 14.1 9s4.6 10.6 3.6 16.3c-1 5.7-4.2 10.7-9 14.1-3.7 2.5-8 3.9-12.4 3.9zM824 444.9H654.4c-12 0-21.8-9.8-21.8-21.8s9.8-21.8 21.8-21.8H824c12 0 21.8 9.8 21.8 21.8s-9.7 21.8-21.8 21.8zM828 520.5c-1.2 0-2.5-0.1-3.8-0.3l-167.1-29.5c-11.9-2.1-19.8-13.4-17.7-25.3 2.1-11.9 13.4-19.8 25.3-17.7l167.1 29.5c5.8 1 10.8 4.2 14.1 9 3.3 4.8 4.6 10.6 3.6 16.4-1.9 10.5-11.1 17.9-21.5 17.9zM661.1 398.8c-10.4 0-19.6-7.5-21.5-18.1-1-5.7 0.3-11.5 3.6-16.3s8.4-8 14.1-9L824.4 326c11.9-2.1 23.2 5.9 25.3 17.7 1 5.7-0.3 11.5-3.6 16.3-3.3 4.8-8.4 8-14.1 9l-167.1 29.5c-1.3 0.2-2.6 0.3-3.8 0.3z m3.6-1.3zM831.8 368c-0.1 0-0.1 0 0 0zM711.5 277.7c-6.9 0-13.7-3.4-17.8-9.6-5.9-9-4.1-20.9 3.8-27.8 3.7-4.8 15.6-25.5 25.4-52.6 11.4-31.3 15.5-58 11.5-75.2-2.4-10.5-7.4-15-12-17.5-12 0.3-66.5 8.3-106.9 48.5-8.3 8.3-21.9 8.3-30.2-0.1s-8.3-21.9 0.1-30.2c30-29.9 65.3-45 89.6-52.4 15.4-4.7 27.9-6.8 35.6-7.7 15.8-1.9 22.4-0.3 26.8 1.7 16.8 7.4 37.4 24 40.7 61.6 2.9 33.2-8.9 71.1-19.4 97.1-5.3 13.1-11.5 26.2-17.4 37-9.1 16.4-14 21.1-18 23.7-3.7 2.3-7.8 3.5-11.8 3.5z m-11.7-39.2z" fill="#2c2c2c" p-id="7010"></path><path d="M774.895 839.878c-9.9 0-18.7-6.9-20.9-16.9-2.4-11.5 4.9-22.8 16.5-25.3 6-1.3 12-3 17.8-5.1 39.9-14.7 69.8-48 80-89.2 5.4-21.7 5.1-44.6-1-66-5.9-20.8-17.1-39.9-32.3-55.3-8.3-8.4-8.2-21.9 0.1-30.2 8.4-8.3 21.9-8.2 30.2 0.2 20.3 20.4 35.2 45.9 43.1 73.6 8.2 28.6 8.6 59 1.4 88-13.7 54.8-53.6 99.3-106.7 118.9-7.7 2.8-15.7 5.2-23.8 6.9-1.4 0.2-2.9 0.4-4.4 0.4z" fill="#2c2c2c" p-id="7011"></path><path d="M783.895 743.778c-6.2 0-12.4-2.7-16.6-8-7.4-9.2-5.9-22.6 3.2-30 7.6-6.1 12.8-14.1 15.1-23.1 3.6-14.3-0.4-29.2-10.6-39.8-8.1-8.5-7.8-22 0.7-30.2 8.5-8.1 22-7.8 30.2 0.7 20.3 21.3 28.2 51 21.1 79.6-4.5 18.1-14.8 34-29.7 46-4 3.2-8.7 4.8-13.4 4.8z" fill="#2c2c2c" p-id="7012"></path><path d="M777.695 645.378c-14.3-12.5-22.4-30.5-22-49.4 0.3-17.1 7.2-33 19.5-44.9 12.3-11.9 28.5-18.3 45.6-18 17.5 0.3 33.8 7.5 45.8 20.4l-31.3 29c-4-4.3-9.4-6.7-15.3-6.8-11.8-0.2-21.5 9.2-21.7 21-0.1 6.3 2.6 12.3 7.4 16.5l-28 32.2z" fill="#2c2c2c" p-id="7013"></path></svg>